# xmcd
# 
# Track frame offsets:
#     182
#     24445
#     51170
#     82620
#     104745
#     128907
#     145220
#     167232
#     192520
#     219870
#     247370
#     273520
#     303457
# 
# Disc length: 4242
# 
# Revision: 2
# Processed by: cddbd v1.5.2PL0 Copyright (c) Steve Scherf et al.
# Submitted via: BonkEnc v1.0.8
# 
DISCID=be10900d
DTITLE=Sixun - Lunatic Taxi
DYEAR=1995
DGENRE=Fusion
TTITLE0=What's Up?
TTITLE1=State Street
TTITLE2=Les Tambours De Noel
TTITLE3=Niger
TTITLE4=Les Enfants Du Monde
TTITLE5=Emergency
TTITLE6=Santorin
TTITLE7=Raggalibo
TTITLE8=Cantabile
TTITLE9=L'Amour Bolero
TTITLE10=Fainakiki
TTITLE11=Payanak
TTITLE12=Arnaud Birthday
EXTD=
EXTT0=
EXTT1=
EXTT2=
EXTT3=
EXTT4=
EXTT5=
EXTT6=
EXTT7=
EXTT8=
EXTT9=
EXTT10=
EXTT11=
EXTT12=
PLAYORDER=
